<?xml version="1.0" encoding="UTF-8" standalone="no"?>
<!DOCTYPE svg PUBLIC "-//W3C//DTD SVG 1.1//EN" "http://www.w3.org/Graphics/SVG/1.1/DTD/svg11.dtd">
<svg width="100%" height="100%" viewBox="0 0 24 24" version="1.1" xmlns="http://www.w3.org/2000/svg" xmlns:xlink="http://www.w3.org/1999/xlink" xml:space="preserve" xmlns:serif="http://www.serif.com/" style="fill-rule:evenodd;clip-rule:evenodd;stroke-linecap:round;stroke-linejoin:round;stroke-miterlimit:1.5;">
    <g id="dome" transform="matrix(1,0,0,1,-1.77636e-15,0.599163)">
        <g transform="matrix(1.3721,0,0,1.11165,-5.83726,-1.73306)">
            <rect x="5.5" y="14" width="15" height="6" style="fill:rgb(74,74,74);stroke:rgb(182,182,182);stroke-width:0.8px;"/>
        </g>
        <g transform="matrix(1.42927,0,0,1.42927,-5.15122,-6.41788)">
            <g transform="matrix(0.984946,0.172863,-0.172863,0.984946,2.60073,-1.8636)">
                <path d="M19.5,14C19.5,12.011 18.71,10.103 17.303,8.697L12,14L19.5,14Z" style="fill:rgb(74,74,74);stroke:rgb(182,182,182);stroke-width:0.7px;"/>
            </g>
            <g transform="matrix(0.863249,-0.603418,0.603418,0.863249,-6.80684,9.15553)">
                <path d="M19.5,14C19.5,11.553 18.306,9.26 16.302,7.856L12,14L19.5,14Z" style="fill:rgb(74,74,74);stroke:rgb(182,182,182);stroke-width:0.66px;"/>
            </g>
        </g>
        <g transform="matrix(-1.42927,0,0,1.42927,29.1512,-6.41788)">
            <g transform="matrix(0.984946,0.172863,-0.172863,0.984946,2.60073,-1.8636)">
                <path d="M19.5,14C19.5,12.011 18.71,10.103 17.303,8.697L12,14L19.5,14Z" style="fill:rgb(74,74,74);stroke:rgb(182,182,182);stroke-width:0.7px;"/>
            </g>
            <g transform="matrix(0.863249,-0.603418,0.603418,0.863249,-6.80684,9.15553)">
                <path d="M19.5,14C19.5,11.553 18.306,9.26 16.302,7.856L12,14L19.5,14Z" style="fill:rgb(74,74,74);stroke:rgb(182,182,182);stroke-width:0.66px;"/>
            </g>
        </g>
        <g transform="matrix(1.42927,0,0,1.42927,-5.15122,-6.41788)">
            <circle cx="12" cy="14" r="1.5" style="fill:rgb(74,74,74);stroke:rgb(182,182,182);stroke-width:0.7px;"/>
        </g>
    </g>
</svg>
